<?xml version="1.0" encoding="UTF-8"?>
<svg id="Layer_1" data-name="Layer 1" xmlns="http://www.w3.org/2000/svg" viewBox="0 0 23.96 27.38">
  <defs>
    <style>
      .cls-1 {
        fill: #873bff;
        stroke-width: 0px;
      }
    </style>
  </defs>
  <g id="SvgjsG1091">
    <path class="cls-1" d="M11.98,0L0,6.85v13.69l11.98,6.85,11.98-6.84h0V6.85L11.98,0ZM11.99,2.64l8.51,4.86-2.3,1.32-6.21-3.55-6.21,3.55-2.3-1.32L11.99,2.64ZM17.03,10.78v4.53l-3.96-2.26v-4.53l3.96,2.26ZM10.89,8.52v4.53l-3.96,2.26v-4.53l3.96-2.26ZM10.89,24.08l-8.51-4.86v-9.76l2.38,1.36v7.1l6.14,3.51v2.65ZM8.08,17.24l3.91-2.23,3.91,2.23-3.91,2.23-3.91-2.23ZM21.68,19.3l-8.41,4.87v-2.63l6.14-3.55v-7.1l2.38-1.32v9.74h-.1Z"/>
  </g>
</svg>