<svg width="352" height="187" viewBox="0 0 352 187" fill="none" xmlns="http://www.w3.org/2000/svg">
<path d="M56.6733 6.44688V11.0025H51.5445V27.7064H46.6721V11.0025H41.2869V6.44688H56.6733ZM69.5955 11.6421C72.5912 11.6421 75.6498 13.6208 75.6498 18.6412V27.7087H70.7775V18.9587C70.7775 16.5498 69.9429 15.7882 68.3949 15.7882C66.1989 15.7882 64.9306 17.8911 64.6229 18.8069V27.7087H59.7506V6.19379H64.6229V14.6217C64.9306 13.8601 66.5695 11.6398 69.5955 11.6398V11.6421ZM86.4833 11.5018C90.1294 11.5018 95.2256 14.2144 94.2068 21.3792H82.9934C83.5505 23.0266 85.0006 23.8802 86.9472 23.8802C88.8938 23.8802 89.5419 23.4522 90.6539 22.9966L93.3419 25.5575C91.9198 26.9287 90.0058 27.9365 86.763 27.9365C82.7789 27.9365 78.0208 25.2238 78.0208 19.7663C78.0208 14.3088 82.8395 11.5041 86.4856 11.5041L86.4833 11.5018ZM86.4833 15.7123C85.0938 15.7123 83.6718 16.506 83.054 18.0913H89.8799C89.3857 16.506 87.8727 15.7123 86.4809 15.7123H86.4833ZM117.389 16.3174C118.415 23.4039 113.799 27.8399 108.066 27.8399C102.003 27.8399 97.0836 23.4637 97.0836 17.1204C97.0836 10.777 102.091 6.40087 108.066 6.40087C110.901 6.40087 113.377 7.29358 115.216 8.87194L112.29 12.1184C111.234 11.4028 109.817 10.8967 108.369 10.8967C104.658 10.8967 102.154 13.5173 102.154 17.1204C102.154 20.7234 104.567 23.3441 108.066 23.3441C110.631 23.3441 112.29 22.571 112.925 20.3668H108.218V16.3174H117.389ZM131.015 11.5179C131.463 11.5179 131.908 11.5179 132.323 11.6099V16.2138C131.941 16.1218 131.493 16.1218 131.174 16.1218C128.111 16.1218 125.653 18.2248 125.399 21.1514V27.7064H120.527V11.7618H125.399V15.634C126.164 13.255 128.08 11.5179 131.015 11.5179ZM139.503 6.19379V10.2432H134.631V6.19379H139.503ZM139.503 11.7618V27.7064H134.631V11.7618H139.503ZM154.377 6.19379H159.249V27.7064H154.377V26.1235C154.16 26.6711 152.712 28.0101 150.244 28.0101C146.574 28.0101 142.35 25.424 142.35 19.764C142.35 14.104 146.574 11.6099 150.244 11.6099C152.71 11.6099 154.16 13.0088 154.377 13.3447V6.19379ZM150.887 23.7306C152.894 23.7306 154.533 22.3593 154.533 19.7065C154.533 17.0536 152.897 15.7744 150.887 15.7744C148.877 15.7744 146.994 17.1779 146.994 19.7065C146.994 22.2351 148.787 23.7306 150.887 23.7306ZM175.918 6.44688H180.79V27.7064H175.918V19.3545H167.712V27.7064H162.583V6.44688H167.712V14.7988H175.918V6.44688ZM190.178 27.9526C187.183 27.9526 184.124 25.9601 184.124 20.9006V11.7641H188.996V20.5141C188.996 22.923 189.831 23.6846 191.379 23.6846C193.575 23.6846 194.843 21.5816 195.151 20.6659V11.7641H200.023V27.7087H195.151V24.95C194.843 25.7162 193.204 27.9549 190.178 27.9549V27.9526ZM212.106 11.6099C215.776 11.6099 220 14.318 220 19.764C220 25.21 215.776 28.0101 212.106 28.0101C209.64 28.0101 208.19 26.6711 207.973 26.1235V27.7064H203.101V6.19379H207.973V13.3447C208.19 13.0111 209.637 11.6099 212.106 11.6099ZM211.37 23.7306C213.47 23.7306 215.263 22.3271 215.263 19.7065C215.263 17.0859 213.47 15.7744 211.37 15.7744C209.269 15.7744 207.724 17.1457 207.724 19.7065C207.724 22.2673 209.36 23.7306 211.37 23.7306Z" fill="#121212"/>
<path d="M15.5146 0L0 8.75V26.25L15.5146 35L31.0246 26.2523L31.0293 26.2454V8.75L15.5146 0ZM15.5286 3.3753L26.5555 9.5944L23.5738 11.2763L15.5286 6.74139L7.48572 11.2763L4.50169 9.5921L15.5309 3.373L15.5286 3.3753ZM22.0539 13.7842V19.5684L16.9251 16.6786V10.8921L22.0539 13.7842ZM14.1042 10.8921V16.6786L8.97541 19.5707V13.7842L14.1042 10.8921ZM14.1042 30.7803L3.07728 24.5612V12.0908L6.15456 13.8256V22.9046L14.1042 27.3889V30.7803ZM10.4651 22.0372L15.5263 19.1819L20.5898 22.0372L15.5286 24.8902L10.4651 22.0372ZM28.0802 24.6693L17.1815 30.8884V27.5224L25.1311 22.9851V13.9061L28.2084 12.2242V24.6693H28.0802Z" fill="#873BFF"/>
<circle cx="20" cy="79" r="20" fill="#F2F2F2"/>
<path d="M24.4498 73.5513C24.2521 73.5513 24.0587 73.61 23.8943 73.7198C23.7298 73.8297 23.6016 73.9859 23.526 74.1686C23.4503 74.3513 23.4305 74.5524 23.4691 74.7464C23.5076 74.9404 23.6029 75.1186 23.7427 75.2584C23.8826 75.3983 24.0608 75.4935 24.2547 75.5321C24.4487 75.5707 24.6498 75.5509 24.8325 75.4752C25.0152 75.3995 25.1714 75.2713 25.2813 75.1069C25.3912 74.9424 25.4498 74.7491 25.4498 74.5513C25.4498 74.2861 25.3445 74.0317 25.1569 73.8442C24.9694 73.6567 24.7151 73.5513 24.4498 73.5513ZM28.2832 75.568C28.267 74.8766 28.1375 74.1925 27.8998 73.543C27.6879 72.9872 27.3582 72.484 26.9332 72.068C26.5205 71.6408 26.0161 71.3131 25.4582 71.1096C24.8104 70.8648 24.1255 70.7323 23.4332 70.718C22.5498 70.668 22.2665 70.668 19.9998 70.668C17.7332 70.668 17.4498 70.668 16.5665 70.718C15.8741 70.7323 15.1893 70.8648 14.5415 71.1096C13.9846 71.3152 13.4806 71.6426 13.0665 72.068C12.6394 72.4806 12.3117 72.985 12.1082 73.543C11.8633 74.1908 11.7308 74.8756 11.7165 75.568C11.6665 76.4513 11.6665 76.7346 11.6665 79.0013C11.6665 81.268 11.6665 81.5513 11.7165 82.4346C11.7308 83.127 11.8633 83.8118 12.1082 84.4596C12.3117 85.0176 12.6394 85.522 13.0665 85.9346C13.4806 86.36 13.9846 86.6874 14.5415 86.893C15.1893 87.1378 15.8741 87.2703 16.5665 87.2846C17.4498 87.3346 17.7332 87.3346 19.9998 87.3346C22.2665 87.3346 22.5498 87.3346 23.4332 87.2846C24.1255 87.2703 24.8104 87.1378 25.4582 86.893C26.0161 86.6895 26.5205 86.3618 26.9332 85.9346C27.36 85.5201 27.6901 85.0165 27.8998 84.4596C28.1375 83.8101 28.267 83.1261 28.2832 82.4346C28.2832 81.5513 28.3332 81.268 28.3332 79.0013C28.3332 76.7346 28.3332 76.4513 28.2832 75.568ZM26.7832 82.3346C26.7771 82.8636 26.6813 83.3877 26.4998 83.8846C26.3668 84.2473 26.1531 84.575 25.8748 84.843C25.6045 85.1184 25.2775 85.3317 24.9165 85.468C24.4196 85.6494 23.8955 85.7452 23.3665 85.7513C22.5332 85.793 22.2248 85.8013 20.0332 85.8013C17.8415 85.8013 17.5332 85.8013 16.6998 85.7513C16.1506 85.7616 15.6037 85.677 15.0832 85.5013C14.738 85.358 14.426 85.1453 14.1665 84.8763C13.8899 84.6086 13.6789 84.2806 13.5498 83.918C13.3464 83.4139 13.2335 82.8779 13.2165 82.3346C13.2165 81.5013 13.1665 81.193 13.1665 79.0013C13.1665 76.8096 13.1665 76.5013 13.2165 75.668C13.2202 75.1272 13.319 74.5913 13.5082 74.0846C13.6549 73.7329 13.8801 73.4194 14.1665 73.168C14.4197 72.8814 14.7326 72.6539 15.0832 72.5013C15.5911 72.318 16.1265 72.2222 16.6665 72.218C17.4998 72.218 17.8082 72.168 19.9998 72.168C22.1915 72.168 22.4998 72.168 23.3332 72.218C23.8621 72.224 24.3863 72.3198 24.8832 72.5013C25.2619 72.6418 25.6017 72.8703 25.8748 73.168C26.1479 73.424 26.3613 73.7369 26.4998 74.0846C26.685 74.5921 26.7809 75.1278 26.7832 75.668C26.8248 76.5013 26.8332 76.8096 26.8332 79.0013C26.8332 81.193 26.8248 81.5013 26.7832 82.3346ZM19.9998 74.7263C19.1547 74.7279 18.329 74.9801 17.627 75.4508C16.9251 75.9216 16.3785 76.5898 16.0562 77.3711C15.7339 78.1524 15.6504 79.0117 15.8163 79.8404C15.9822 80.6691 16.39 81.4301 16.9882 82.0271C17.5864 82.6242 18.3482 83.0305 19.1772 83.1948C20.0063 83.359 20.8654 83.2739 21.6461 82.9501C22.4267 82.6263 23.0939 82.0783 23.5633 81.3755C24.0327 80.6727 24.2832 79.8465 24.2832 79.0013C24.2843 78.4389 24.1742 77.8818 23.9592 77.3621C23.7442 76.8424 23.4286 76.3703 23.0306 75.973C22.6325 75.5757 22.1598 75.261 21.6397 75.0471C21.1195 74.8331 20.5622 74.7241 19.9998 74.7263ZM19.9998 81.7763C19.451 81.7763 18.9145 81.6136 18.4581 81.3086C18.0018 81.0037 17.6461 80.5703 17.4361 80.0632C17.226 79.5562 17.1711 78.9982 17.2782 78.4599C17.3852 77.9216 17.6495 77.4272 18.0376 77.0391C18.4257 76.651 18.9202 76.3867 19.4585 76.2796C19.9968 76.1725 20.5547 76.2275 21.0618 76.4375C21.5688 76.6476 22.0022 77.0032 22.3072 77.4596C22.6121 77.9159 22.7748 78.4525 22.7748 79.0013C22.7748 79.3657 22.7031 79.7266 22.5636 80.0632C22.4241 80.3999 22.2197 80.7058 21.9621 80.9635C21.7044 81.2212 21.3985 81.4256 21.0618 81.5651C20.7251 81.7045 20.3643 81.7763 19.9998 81.7763Z" fill="black"/>
<circle cx="76" cy="79" r="20" fill="#F2F2F2"/>
<path d="M78.6 73.4347H80.1666V70.7847C79.4081 70.7058 78.6459 70.6668 77.8833 70.668C75.6166 70.668 74.0666 72.0513 74.0666 74.5847V76.768H71.5083V79.7347H74.0666V87.3347H77.1333V79.7347H79.6833L80.0666 76.768H77.1333V74.8763C77.1333 74.0013 77.3666 73.4347 78.6 73.4347Z" fill="black"/>
<circle cx="132" cy="79" r="20" fill="#F2F2F2"/>
<path d="M139.058 70.6681H124.942C124.783 70.6659 124.626 70.695 124.478 70.7537C124.331 70.8124 124.196 70.8995 124.082 71.0102C123.969 71.1208 123.878 71.2528 123.815 71.3986C123.752 71.5444 123.719 71.7011 123.717 71.8598V86.1431C123.719 86.3018 123.752 86.4585 123.815 86.6042C123.878 86.75 123.969 86.882 124.082 86.9927C124.196 87.1033 124.331 87.1905 124.478 87.2492C124.626 87.3079 124.783 87.337 124.942 87.3348H139.058C139.217 87.337 139.375 87.3079 139.522 87.2492C139.67 87.1905 139.804 87.1033 139.918 86.9927C140.032 86.882 140.122 86.75 140.185 86.6042C140.248 86.4585 140.281 86.3018 140.283 86.1431V71.8598C140.281 71.7011 140.248 71.5444 140.185 71.3986C140.122 71.2528 140.032 71.1208 139.918 71.0102C139.804 70.8995 139.67 70.8124 139.522 70.7537C139.375 70.695 139.217 70.6659 139.058 70.6681ZM128.742 84.6181H126.242V77.1181H128.742V84.6181ZM127.492 76.0681C127.147 76.0681 126.816 75.9311 126.573 75.6873C126.329 75.4435 126.192 75.1129 126.192 74.7681C126.192 74.4233 126.329 74.0926 126.573 73.8488C126.816 73.605 127.147 73.4681 127.492 73.4681C127.675 73.4473 127.86 73.4655 128.036 73.5213C128.211 73.5772 128.373 73.6695 128.511 73.7922C128.648 73.9149 128.758 74.0653 128.833 74.2335C128.909 74.4017 128.948 74.5838 128.948 74.7681C128.948 74.9523 128.909 75.1345 128.833 75.3027C128.758 75.4709 128.648 75.6212 128.511 75.744C128.373 75.8667 128.211 75.959 128.036 76.0148C127.86 76.0707 127.675 76.0888 127.492 76.0681ZM137.758 84.6181H135.258V80.5931C135.258 79.5848 134.9 78.9264 133.992 78.9264C133.711 78.9285 133.437 79.0167 133.207 79.1791C132.978 79.3415 132.804 79.5703 132.708 79.8348C132.643 80.0306 132.615 80.2369 132.625 80.4431V84.6098H130.125C130.125 84.6098 130.125 77.7931 130.125 77.1098H132.625V78.1681C132.852 77.774 133.183 77.4494 133.58 77.2291C133.978 77.0088 134.429 76.9013 134.883 76.9181C136.55 76.9181 137.758 77.9931 137.758 80.3014V84.6181Z" fill="black"/>
<circle cx="188" cy="79" r="20" fill="#F2F2F2"/>
<path d="M196.333 73.8325C195.707 74.1043 195.044 74.2839 194.367 74.3659C195.082 73.9386 195.618 73.2665 195.875 72.4742C195.203 72.8743 194.467 73.1561 193.7 73.3075C193.187 72.7513 192.504 72.3811 191.758 72.2549C191.012 72.1287 190.245 72.2537 189.578 72.6102C188.911 72.9667 188.381 73.5346 188.071 74.2249C187.761 74.9151 187.689 75.6887 187.867 76.4242C186.508 76.3555 185.179 76.0017 183.965 75.3857C182.752 74.7698 181.682 73.9056 180.825 72.8492C180.524 73.3743 180.366 73.9691 180.367 74.5742C180.365 75.1362 180.503 75.6897 180.768 76.1855C181.033 76.6813 181.416 77.104 181.883 77.4159C181.34 77.4011 180.808 77.2553 180.333 76.9909V77.0325C180.337 77.8199 180.613 78.5818 181.114 79.1892C181.615 79.7966 182.311 80.2122 183.083 80.3659C182.786 80.4563 182.477 80.504 182.167 80.5075C181.951 80.505 181.737 80.4855 181.525 80.4492C181.745 81.1265 182.17 81.7185 182.742 82.1427C183.314 82.5668 184.004 82.8022 184.717 82.8159C183.514 83.7619 182.03 84.2782 180.5 84.2825C180.221 84.2834 179.943 84.2667 179.667 84.2325C181.229 85.2411 183.049 85.7765 184.908 85.7742C186.191 85.7875 187.464 85.545 188.652 85.0609C189.841 84.5768 190.921 83.8608 191.829 82.9546C192.738 82.0485 193.456 80.9704 193.944 79.7833C194.431 78.5962 194.677 77.324 194.667 76.0409C194.667 75.8992 194.667 75.7492 194.667 75.5992C195.32 75.1115 195.884 74.5137 196.333 73.8325Z" fill="black"/>
</svg>
